<svg xmlns="http://www.w3.org/2000/svg" width="19.564" height="19.564" viewBox="0 0 19.564 19.564">
  <path id="Icon_simple-instagram" data-name="Icon simple-instagram" d="M9.782,0C7.125,0,6.793.012,5.749.059A7.213,7.213,0,0,0,3.375.514,4.79,4.79,0,0,0,1.642,1.642,4.773,4.773,0,0,0,.514,3.375,7.192,7.192,0,0,0,.059,5.749C.01,6.793,0,7.125,0,9.782s.012,2.989.059,4.033a7.218,7.218,0,0,0,.455,2.375,4.8,4.8,0,0,0,1.128,1.733A4.783,4.783,0,0,0,3.375,19.05a7.222,7.222,0,0,0,2.375.455c1.043.049,1.375.059,4.033.059s2.989-.012,4.033-.059a7.239,7.239,0,0,0,2.375-.455,5,5,0,0,0,2.861-2.861,7.217,7.217,0,0,0,.455-2.375c.049-1.043.059-1.375.059-4.033s-.012-2.989-.059-4.033a7.234,7.234,0,0,0-.455-2.375,4.8,4.8,0,0,0-1.128-1.733A4.766,4.766,0,0,0,16.189.514,7.2,7.2,0,0,0,13.815.059C12.771.01,12.439,0,9.782,0Zm0,1.761c2.611,0,2.922.013,3.954.058a5.389,5.389,0,0,1,1.815.338,3.219,3.219,0,0,1,1.857,1.856,5.4,5.4,0,0,1,.337,1.815c.046,1.032.057,1.342.057,3.954s-.012,2.922-.06,3.954a5.5,5.5,0,0,1-.343,1.815,3.106,3.106,0,0,1-.733,1.127,3.052,3.052,0,0,1-1.125.73,5.441,5.441,0,0,1-1.822.337c-1.039.046-1.344.057-3.961.057s-2.923-.012-3.961-.06A5.547,5.547,0,0,1,3.974,17.4a3.029,3.029,0,0,1-1.124-.733,2.97,2.97,0,0,1-.734-1.125,5.551,5.551,0,0,1-.342-1.822c-.037-1.027-.05-1.344-.05-3.949s.013-2.923.05-3.963a5.545,5.545,0,0,1,.342-1.821A2.9,2.9,0,0,1,2.85,2.86a2.893,2.893,0,0,1,1.124-.732,5.414,5.414,0,0,1,1.81-.343c1.039-.037,1.345-.049,3.961-.049l.037.024Zm0,3a5.023,5.023,0,1,0,5.023,5.023A5.023,5.023,0,0,0,9.782,4.759Zm0,8.284a3.261,3.261,0,1,1,3.261-3.261A3.26,3.26,0,0,1,9.782,13.043Zm6.4-8.482A1.174,1.174,0,1,1,15,3.388,1.175,1.175,0,0,1,16.178,4.561Z" fill="#fff"/>
</svg>
